HIERARCHY
ROOT Hips
{
	OFFSET 39.876801 -4.248706 98.827499
	CHANNELS 6 Xposition Yposition Zposition Xrotation Yrotation Zrotation
	JOINT spine
	{
		OFFSET 0.000000 -0.477354 8.301041
		CHANNELS 3 Xrotation Yrotation Zrotation
		JOINT spine1
		{
			OFFSET 0.000000 -0.000001 10.456497
			CHANNELS 3 Xrotation Yrotation Zrotation
			JOINT spine2
			{
				OFFSET 0.000000 -0.000002 10.019203
				CHANNELS 3 Xrotation Yrotation Zrotation
				JOINT Neck
				{
					OFFSET 0.000000 -1.226414 25.723503
					CHANNELS 3 Xrotation Yrotation Zrotation
					JOINT Head
					{
						OFFSET 0.000000 -0.000001 7.771744
						CHANNELS 3 Xrotation Yrotation Zrotation
						End Site
						{
							OFFSET 0.000000 6.203937 18.811996
						}
					}
				}
				JOINT RightShoulder
				{
					OFFSET -4.218800 0.587438 10.820000
					CHANNELS 3 Xrotation Yrotation Zrotation
					JOINT RightArm
					{
						OFFSET 0.000000 -0.000002 14.191406
						CHANNELS 3 Xrotation Yrotation Zrotation
						JOINT RightArmRoll
						{
							OFFSET 0.000000 -0.000001 7.164078
							CHANNELS 3 Xrotation Yrotation Zrotation
							JOINT RightForeArm
							{
								OFFSET 0.000000 -0.000003 20.866501
								CHANNELS 3 Xrotation Yrotation Zrotation
								JOINT RightForeArmRoll
								{
									OFFSET 0.000000 -0.000001 8.039215
									CHANNELS 3 Xrotation Yrotation Zrotation
									JOINT RightHand
									{
										OFFSET 0.000000 -0.000003 16.132996
										CHANNELS 3 Xrotation Yrotation Zrotation
										End Site
										{
											OFFSET 0.000000 0.000000 0.100006
										}
									}
								}
							}
						}
					}
				}
				JOINT LeftShoulder
				{
					OFFSET 4.218800 0.587438 10.820000
					CHANNELS 3 Xrotation Yrotation Zrotation
					JOINT LeftArm
					{
						OFFSET 0.000000 -0.000002 14.191406
						CHANNELS 3 Xrotation Yrotation Zrotation
						JOINT LeftArmRoll
						{
							OFFSET 0.000000 -0.000001 7.164078
							CHANNELS 3 Xrotation Yrotation Zrotation
							JOINT LeftForeArm
							{
								OFFSET 0.000000 -0.000003 20.866501
								CHANNELS 3 Xrotation Yrotation Zrotation
								JOINT LeftForeArmRoll
								{
									OFFSET 0.000000 -0.000001 8.039215
									CHANNELS 3 Xrotation Yrotation Zrotation
									JOINT LeftHand
									{
										OFFSET 0.000000 -0.000003 16.132996
										CHANNELS 3 Xrotation Yrotation Zrotation
										End Site
										{
											OFFSET 0.000000 0.000000 0.100006
										}
									}
								}
							}
						}
					}
				}
			}
		}
	}
	JOINT RightUpLeg
	{
		OFFSET -7.357731 1.131820 -1.349213
		CHANNELS 3 Xrotation Yrotation Zrotation
		JOINT RightUpLegRoll
		{
			OFFSET 0.000000 -0.000003 18.916801
			CHANNELS 3 Xrotation Yrotation Zrotation
			JOINT RightLeg
			{
				OFFSET 0.000000 0.000004 -23.425598
				CHANNELS 3 Xrotation Yrotation Zrotation
				JOINT RightLegRoll
				{
					OFFSET 0.000000 -0.000004 23.502296
					CHANNELS 3 Xrotation Yrotation Zrotation
					JOINT RightFoot
					{
						OFFSET 0.000000 -0.000003 19.561707
						CHANNELS 3 Xrotation Yrotation Zrotation
						JOINT RightToeBase
						{
							OFFSET 0.000000 -0.000003 16.352600
							CHANNELS 3 Xrotation Yrotation Zrotation
							End Site
							{
								OFFSET 0.006931 0.912835 7.919434
							}
						}
					}
				}
			}
		}
	}
	JOINT LeftUpLeg
	{
		OFFSET 7.357731 1.131820 -1.349213
		CHANNELS 3 Xrotation Yrotation Zrotation
		JOINT LeftUpLegRoll
		{
			OFFSET 0.000000 -0.000003 18.916901
			CHANNELS 3 Xrotation Yrotation Zrotation
			JOINT LeftLeg
			{
				OFFSET 0.000000 -0.000004 23.425507
				CHANNELS 3 Xrotation Yrotation Zrotation
				JOINT LeftLegRoll
				{
					OFFSET 0.000000 -0.000004 23.719498
					CHANNELS 3 Xrotation Yrotation Zrotation
					JOINT LeftFoot
					{
						OFFSET 0.000000 -0.000003 19.344406
						CHANNELS 3 Xrotation Yrotation Zrotation
						JOINT LeftToeBase
						{
							OFFSET 0.000000 -0.000003 16.352600
							CHANNELS 3 Xrotation Yrotation Zrotation
							End Site
							{
								OFFSET -0.031063 0.912836 7.919434
							}
						}
					}
				}
			}
		}
	}
}
MOTION
Frames: 9
Frame Time: 0.041667
39.681400 -4.604526 98.824097 -1.508925 -1.034012 1.904494 -2.707113 0.092723 0.084235 -1.404306 0.171225 0.175909 0.240759 0.173283 0.173829 37.849756 8.419978 -2.750890 -18.714968 -9.254708 -1.816044 -12.613916 -27.210804 -13.245104 -122.775902 -190.688513 -80.334486 0.000002 0.000000 0.000003 83.653896 9.260454 8.403189 0.000007 -0.000001 -3.006272 -5.000165 -7.999928 0.000021 -11.526057 38.788132 12.489803 -129.769920 185.786254 82.690833 -0.000004 0.000004 0.000005 72.068044 -3.698974 -3.222105 0.000001 -0.000001 3.009615 -5.000215 7.999261 -0.000107 0.535763 -175.333210 1.509181 -179.999991 0.000005 -1.064002 175.014076 -4.090520 -0.590552 0.000001 0.000002 0.059818 68.770873 6.884203 2.173055 25.456957 -7.355615 -0.000000 0.281257 175.925060 1.000935 -0.000005 -0.000004 -1.127110 -8.322241 3.507823 0.904693 0.000001 -0.000001 -0.095133 68.390022 -6.920704 -2.093469 25.456957 7.355615 -0.000001 
39.679298 -4.601643 98.828209 -1.509516 -1.033451 1.910778 -2.706494 0.093695 0.082746 -1.404196 0.174602 0.172645 0.240868 0.176622 0.170526 37.837978 8.389228 -2.733101 -18.700122 -9.224559 -1.801805 -12.605110 -27.209928 -13.232148 -122.675880 -190.679607 -80.359477 0.000003 -0.000000 -0.000000 83.761465 9.223707 8.398138 0.000004 -0.000005 -3.006271 -5.000162 -7.999931 0.000023 -11.488552 38.815767 12.441482 -129.729690 185.809764 82.715346 -0.000003 0.000004 0.000006 72.263415 -3.652958 -3.244856 0.000001 -0.000002 3.009608 -5.000214 7.999263 -0.000110 0.533055 -175.334207 1.510731 -179.999991 0.000005 -1.064999 175.011208 -4.093483 -0.591016 0.000001 0.000002 0.059816 68.769596 6.884159 2.173126 25.456959 -7.355617 0.000001 0.279166 175.922054 1.000108 -0.000005 -0.000005 -1.127180 -8.319082 3.507495 0.904858 0.000002 -0.000002 -0.095166 68.388949 -6.920664 -2.093429 25.456955 7.355613 0.000000 
39.679401 -4.597608 98.830406 -1.509865 -1.032952 1.916805 -2.705812 0.094615 0.081225 -1.404147 0.178008 0.169263 0.240923 0.179990 0.167105 37.829218 8.359733 -2.717204 -18.688537 -9.196442 -1.789349 -12.595678 -27.211479 -13.218533 -122.578933 -190.661329 -80.382584 0.000001 0.000003 -0.000001 83.860755 9.187937 8.392163 0.000004 -0.000004 -3.006274 -5.000166 -7.999926 0.000024 -11.451757 38.845308 12.394241 -129.694965 185.826962 82.743138 -0.000001 0.000003 0.000006 72.466784 -3.605110 -3.268727 0.000000 -0.000002 3.009606 -5.000217 7.999259 -0.000107 0.530035 -175.335191 1.512246 -179.999991 0.000004 -1.064999 175.008312 -4.097453 -0.591569 0.000001 0.000002 0.059814 68.768318 6.884112 2.173097 25.456957 -7.355615 0.000000 0.277443 175.919035 0.999397 -0.000005 -0.000005 -1.127250 -8.314841 3.507146 0.905008 0.000002 -0.000002 -0.095198 68.387570 -6.920598 -2.093504 25.456952 7.355614 -0.000001 
39.675400 -4.594845 98.852303 -1.510027 -1.032502 1.922524 -2.705062 0.095485 0.079679 -1.404087 0.181413 0.165790 0.240977 0.183356 0.163592 37.822763 8.331654 -2.703044 -18.679809 -9.170452 -1.778564 -12.585812 -27.215133 -13.204373 -122.485304 -190.634323 -80.402391 0.000004 -0.000000 0.000002 83.951597 9.153393 8.385414 0.000006 -0.000003 -3.006270 -5.000162 -7.999932 0.000021 -11.415942 38.876634 12.348427 -129.665500 185.837535 82.771852 -0.000002 0.000004 0.000006 72.674954 -3.556214 -3.293267 -0.000001 0.000000 3.009599 -5.000219 7.999261 -0.000108 0.526719 -175.336202 1.513668 -179.999991 0.000005 -1.064999 175.005443 -4.100428 -0.592036 0.000001 0.000002 0.059812 68.767034 6.884069 2.173168 25.456959 -7.355616 -0.000001 0.275991 175.917041 0.998800 -0.000005 -0.000004 -1.127310 -8.309778 3.506796 0.905145 0.000002 -0.000002 -0.095231 68.385964 -6.920558 -2.093495 25.456955 7.355613 -0.000000 
39.669899 -4.591195 98.847008 -1.510014 -1.032082 1.927925 -2.704233 0.096308 0.078112 -1.403988 0.184785 0.162245 0.241088 0.186688 0.160010 37.817948 8.305315 -2.690560 -18.673240 -9.146690 -1.769295 -12.575623 -27.220892 -13.189839 -122.395556 -190.599216 -80.420321 0.000001 0.000000 0.000003 84.033839 9.120234 8.377971 0.000003 -0.000003 -3.006272 -5.000165 -7.999927 0.000026 -11.381274 38.909125 12.304210 -129.640856 185.841155 82.802219 -0.000003 0.000003 0.000005 72.884559 -3.506970 -3.317993 -0.000000 -0.000003 3.009597 -5.000222 7.999261 -0.000108 0.523137 -175.336188 1.514996 -179.999991 0.000005 -1.064999 175.002506 -4.103391 -0.592506 0.000001 0.000002 0.059811 68.765860 6.884029 2.173135 25.456957 -7.355616 0.000000 0.274727 175.914036 0.998266 -0.000005 -0.000005 -1.127370 -8.304126 3.506451 0.905269 0.000002 -0.000001 -0.095263 68.384277 -6.920506 -2.093493 25.456959 7.355614 -0.000001 
39.668598 -4.587166 98.829506 -1.509885 -1.031672 1.932978 -2.703314 0.097087 0.076530 -1.403767 0.188092 0.158657 0.241304 0.189956 0.156383 37.813973 8.280956 -2.679629 -18.668220 -9.125255 -1.761418 -12.565074 -27.228454 -13.174960 -122.309768 -190.556459 -80.434828 0.000001 -0.000000 0.000003 84.107236 9.088861 8.369884 0.000004 -0.000002 -3.006275 -5.000165 -7.999932 0.000025 -11.348008 38.942675 12.261943 -129.620735 185.837549 82.835892 -0.000002 0.000005 0.000005 73.092498 -3.458101 -3.342315 0.000000 -0.000002 3.009602 -5.000214 7.999260 -0.000107 0.519311 -175.337185 1.516146 -179.999991 0.000005 -1.064999 174.999555 -4.106366 -0.592979 0.000001 0.000002 0.059809 68.764582 6.883986 2.173206 25.456957 -7.355616 0.000001 0.273562 175.911044 0.997775 -0.000005 -0.000004 -1.127440 -8.298139 3.506128 0.905382 0.000002 -0.000001 -0.095295 68.382577 -6.920457 -2.093389 25.456953 7.355614 0.000000 
39.670799 -4.568305 98.837807 -1.509657 -1.031262 1.937643 -2.702323 0.097823 0.074940 -1.403387 0.191304 0.155047 0.241682 0.193128 0.152736 37.810261 8.258890 -2.670226 -18.664353 -9.106231 -1.754818 -12.554257 -27.237621 -13.159837 -122.228475 -190.506707 -80.447437 0.000001 0.000003 0.000003 84.171720 9.059308 8.361227 0.000003 -0.000005 -3.006272 -5.000164 -7.999931 0.000025 -11.316358 38.976850 12.221865 -129.604697 185.826361 82.871594 -0.000007 0.000003 0.000006 73.295429 -3.410262 -3.365831 0.000000 -0.000002 3.009604 -5.000214 7.999263 -0.000109 0.515267 -175.338196 1.517119 -179.999991 0.000004 -1.064999 174.996591 -4.109341 -0.593452 0.000001 0.000002 0.059807 68.763298 6.883942 2.173278 25.456953 -7.355617 0.000001 0.272409 175.909050 0.997307 -0.000005 -0.000004 -1.127500 -8.292066 3.505846 0.905487 0.000002 -0.000001 -0.095328 68.380876 -6.920444 -2.093292 25.456957 7.355614 -0.000001 
39.668701 -4.567006 98.823708 -1.509372 -1.030833 1.941909 -2.701233 0.098520 0.073348 -1.402798 0.194389 0.151440 0.242275 0.196173 0.149093 37.806221 8.239258 -2.662200 -18.660920 -9.089698 -1.749368 -12.543375 -27.248271 -13.144651 -122.151964 -190.450454 -80.457607 0.000004 -0.000001 -0.000000 84.227079 9.031877 8.352235 0.000004 -0.000006 -3.006272 -5.000163 -7.999928 0.000026 -11.286520 39.011247 12.184244 -129.592362 185.807319 82.910054 -0.000004 0.000006 0.000005 73.490015 -3.364182 -3.387913 -0.000000 -0.000001 3.009603 -5.000218 7.999261 -0.000107 0.511029 -175.339180 1.517855 -179.999991 0.000005 -1.064999 174.993599 -4.112303 -0.593927 0.000001 0.000002 0.059805 68.762042 6.883933 2.173253 25.456959 -7.355616 0.000000 0.271178 175.906044 0.996811 -0.000005 -0.000005 -1.127560 -8.286143 3.505611 0.905583 0.000001 -0.000002 -0.095360 68.379387 -6.920373 -2.093374 25.456959 7.355615 -0.000001 
39.662399 -4.571674 98.826698 -1.509062 -1.030373 1.945747 -2.700045 0.099180 0.071758 -1.401938 0.197315 0.147860 0.243137 0.199060 0.145480 37.800972 8.222399 -2.655464 -18.657425 -9.075764 -1.744942 -12.532299 -27.260123 -13.129379 -122.080534 -190.388354 -80.465960 0.000000 0.000002 0.000001 84.273094 9.006879 8.342840 0.000006 -0.000004 -3.006270 -5.000165 -7.999928 0.000022 -11.258760 39.045634 12.149383 -129.583360 185.780066 82.950981 -0.000003 0.000005 0.000006 73.673030 -3.320512 -3.407861 -0.000000 -0.000002 3.009600 -5.000218 7.999263 -0.000108 0.506615 -175.340177 1.518337 -179.999991 0.000005 -1.064999 174.990594 -4.114284 -0.594317 0.000001 0.000002 0.059804 68.760764 6.883888 2.173225 25.456959 -7.355616 0.000000 0.269777 175.903039 0.996277 -0.000005 -0.000005 -1.127620 -8.280631 3.505443 0.905672 0.000002 -0.000002 -0.095393 68.378117 -6.920352 -2.093248 25.456955 7.355614 -0.000000 
